<?xml version="1.0" encoding="utf-8"?>
<!-- Generator: Adobe Illustrator 24.0.0, SVG Export Plug-In . SVG Version: 6.00 Build 0)  -->
<svg version="1.1"
	 id="svg191" xmlns:inkscape="http://www.inkscape.org/namespaces/inkscape" xmlns:sodipodi="http://sodipodi.sourceforge.net/DTD/sodipodi-0.dtd" xmlns:svg="http://www.w3.org/2000/svg"
	 xmlns="http://www.w3.org/2000/svg" xmlns:xlink="http://www.w3.org/1999/xlink" x="0px" y="0px" viewBox="0 0 720 720"
	 style="enable-background:new 0 0 720 720;" xml:space="preserve">
<style type="text/css">
	.st0{fill-rule:evenodd;clip-rule:evenodd;fill:#FFC947;}
	.st1{fill-rule:evenodd;clip-rule:evenodd;fill:#1B1918;}
</style>
<circle class="st0" cx="360" cy="360" r="360"/>
<sodipodi:namedview  bordercolor="#000000" borderopacity="0.25" id="namedview193" inkscape:deskcolor="#d1d1d1" inkscape:document-units="pt" inkscape:pagecheckerboard="0" inkscape:pageopacity="0.0" inkscape:showpageshadow="2" pagecolor="#ffffff">
	</sodipodi:namedview>
<g id="Layer1001">
	<path id="path25" class="st1" d="M325.5,55.3c0,0,29.3-17.3,61.5-1.6s92.2,46.1,125.4,95.8s22.3,105.8,22.8,115.7
		c0.5,9.9-5.8,64.9-19.4,82.7c-13.6,17.8-18.6,24.6-22.5,38s-8.1,21.2-9.9,25.1s-4.5,26.2-2.1,31.2s9.9,10.2,9.7,19.4
		c-0.3,9.2,1.6,18.1-7.3,29.8c-8.9,11.8,1.3,17.3,2.9,19.9s3.9,19.1,0.3,29.6c-3.7,10.5-9,17.1-9.4,30.6c0,0-3.1-1.2-5.2-5.2
		c-2.1-4.1-7.6-5.4-7.6,1.7c0,7.1,2.6,17.4,6.9,22.5c0,0-5.2-3.1-7.9-5.5c-2.6-2.4-4.7,0-6.5,2.9s-9.3,7.2-8.6,25.8
		c0,0-3.3-2-4.3-3.7s-5.5-3.5-6,3s-0.9,7.5-8.2,18.2c0,0,0.5-5.1,0-7.7c-0.5-2.6-4.1-5.2-6.5-2.2c-2.5,3-3.5,7.3-3.7,19.2
		c0,0-3.5-2.5-4.2-6.3s-0.9-6.5-4.8-5.9c-3.9,0.7-4.6,6.7-4.8,13.7c-0.3,7.1-1.4,9.1-1.4,9.1s-1.2-11.8-5.4-11.9
		c-4.2-0.1-5,0.5-5.9,5.2c0,0-2.1-4.1-3.5-2.4c-1.4,1.8-6.1,6.9-8.6,18.5c0,0-0.9-7.7-4.5-8.6c-3.5-0.9-5-2.4-9.8,6.9
		c-4.8,9.3-7.2,14-7.2,14s-4.5-14-8.1-17.9c-3.7-3.9-7.5-4.1-8.6,0.9c-1.2,5-0.9,8.2-0.9,8.2s-6.5-9.5-6.9-13.4s0.3-7.9-1.6-7.9
		c-1.9-0.1-4.1,0.3-3.4,9.6c0,0-2.8-5-3.5-12.3c0,0-9.4-2.9-8.9,13.6c0,0-5.8-4.2-6-13.9c-0.3-9.7-0.5-14.7-2.9-12.6
		c-2.4,2.1-1.3,8.4-5.2,12.3c-3.9,3.9-6.8,6-6.8,6s6.5-11.3,4.7-16s-2.4-9.9-6.3-9.7c-3.9,0.3-4.2,14.7-4.2,14.7s-6.5-10.5-7.9-18.6
		c-1.3-8.1-4.7-11.3-9.7-1.6c0,0,2.4-14.4-3.9-21.5s-7.9-11.8-16.5-6c0,0,3.9-8.2,4.1-15.2c0.1-6.9-2.2-11.7-6.7-8
		c0,0-1.8,3.1-2.6,5.8c-0.8,2.6-4.1,6.4-4.1,6.4s-0.5-19.6-4.2-25.1s-13.1-27.5,0.3-47.4c0,0,4.2-5.2,0-8.9
		c-4.2-3.7-11-16.5-11.5-27.2s7.1-19.4,12.3-25.4s10.2-16,6.5-23c-3.7-7.1-7.3-9.2-10.2-17.5c-2.9-8.4-2.6-13.4-9.2-20.4
		c-6.5-7.1-23.6-33.8-25.9-39.8c-2.4-6-13.9-47.1-14.4-62.8c-0.5-15.7,0-37.2-3.1-53.4C180.8,208.7,191.3,111.9,325.5,55.3
		L325.5,55.3z"/>
	<path id="path27" class="st0" d="M346.3,225.2c0,0,12-14.7,24.1-2.4c21.7,22.1,106.1,131.8,100,151.6c-1,3.4-12.3,45.8-38.5,67.3
		c0,0-3.4,3.9-9.2-1.3c-5.8-5.2-20.8-14.4-28.6-14.7c-8.2-0.3-22.6,4.8-30.5,9.4c-16,9.4-33.3-23.4-49.6-13.7
		c-5.9,3.5-19.4,22.8-25.1,17c-5.8-5.8-24.6-16.2-40.8-58.6C246.7,341.2,323.8,249.9,346.3,225.2L346.3,225.2z"/>
	<path id="path29" class="st0" d="M295,508.1c0,0-2.6,13.1,0.8,27.8c0,0,3.1-13.1,9.7-22.3c0,0-8.6,46.1-7.3,66.5
		C298.1,580.1,276.9,543.4,295,508.1z"/>
	<path id="path31" class="st0" d="M309.3,535.7c0,0,1.9,17.2,7.2,34.8c0,0,6-29.1,13.2-40.8c0,0-10,56.8-6.8,81.6
		C322.9,611.3,298.1,580.1,309.3,535.7z"/>
	<path id="path33" class="st0" d="M333.9,554.1c0,0-2.2,16.2,3.1,33.8c0,0,13.3-56.5,20.5-68.2c0,0-14.5,88-11.3,112.8
		C346.2,632.5,322,597.8,333.9,554.1L333.9,554.1z"/>
	<path id="path35" class="st0" d="M351.9,598.5c0,0-0.8,35.9,1.3,47.9C353.2,646.4,343,633.3,351.9,598.5z"/>
	<path id="path37" class="st0" d="M327.3,591.7c0,0,8,38.3,16,50.8C343.3,642.5,321,631.3,327.3,591.7z"/>
	<path id="path39" class="st0" d="M303.2,565c0,0,3.1,28.8,12,52.1C315.3,617.1,296.4,601.4,303.2,565z"/>
	<path id="path41" class="st0" d="M298.5,590.3c0,0,3.7,21.5,6,26.7c2.4,5.2-6.3-0.1-6.8-6.7C297.2,603.8,297.1,599.8,298.5,590.3z"
		/>
	<path id="path43" class="st0" d="M278.6,538.1c0,0,5.2-18.1,6-8.1s-0.8,45.3,7.6,66C302.4,620.9,272.6,589.1,278.6,538.1z"/>
	<path id="path45" class="st0" d="M268,571.1c0,0,5.1,17.7,5.9,8s-0.7-44.4,7.6-64.6C291.5,490,262.2,521,268,571.1z"/>
	<path id="path47" class="st0" d="M323.5,615.8c1,4.6,0.5,6.9,2.1,8.9s3.3,10.7-0.7,8.4C315,627.1,322,609,323.5,615.8z"/>
	<path id="path49" class="st0" d="M256.2,553c0,0,5,12.9,5.3,5.6c0.3-7.2-2.2-32.8,4.1-48.1C273.1,492,249.5,516.2,256.2,553z"/>
	<path id="path51" class="st0" d="M244.5,536.5c4,9.5,4.9,15.2,0.4,14.4c-10.8-1.8-11.4-37.4-1.3-45.6
		C255,496,240.4,527,244.5,536.5z"/>
	<path id="path53" class="st0" d="M251.3,550.4c-4.7-10.4-6.2-23-2.2-33.9c1.4-3.9,3.9-10.6,5.8-10.6c1.8,0-0.1,5.9-1,12.8
		s-1.3,26.4-0.3,30.4C254.5,553,251.3,550.4,251.3,550.4L251.3,550.4z"/>
	<path id="path55" class="st0" d="M267.7,528.1c-0.9-6.5,0.2-13.7,4.2-19c1.4-1.9,3.9-5.2,4.9-4.9c1,0.3-1,3.2-2.6,6.9
		c-1.6,3.7-4.9,14.4-5,16.7C269,530,267.7,528.1,267.7,528.1L267.7,528.1z"/>
	<path id="path57" class="st0" d="M298.1,515.4c0-6.5,2.7-13.5,8.7-18.3c2.1-1.7,5.8-4.6,7.1-4.2c1.2,0.4-1.9,3.1-4.6,6.5
		s-8.8,13.6-9.3,15.9C299.5,517.6,298.1,515.4,298.1,515.4L298.1,515.4z"/>
	<path id="path59" class="st0" d="M310.1,527.4c-0.8-6.5,1-13.7,6.2-19.1c1.9-1.9,5-5.3,6.3-5c1.2,0.3-1.4,3.2-3.6,6.9
		c-2.2,3.7-6.9,14.4-7.1,16.8C311.7,529.4,310.1,527.4,310.1,527.4L310.1,527.4z"/>
	<path id="path61" class="st0" d="M315.7,548c-1.4-7.9,0.2-16.8,6.1-23.8c2.1-2.5,5.7-6.8,7.3-6.5c1.5,0.3-1.5,4.1-3.9,8.7
		c-2.4,4.7-7.3,18.2-7.3,21C317.8,550.3,315.7,548,315.7,548L315.7,548z"/>
	<path id="path63" class="st0" d="M337,558.3c-1.4-12,0.2-25.6,6-36.3c2.1-3.8,5.7-10.4,7.2-10c1.5,0.4-1.5,6.2-3.8,13.3
		c-2.4,7.1-7.2,27.7-7.3,32.1C339.1,561.7,337,558.3,337,558.3L337,558.3z"/>
	<path id="path65" class="st0" d="M359.5,528c2.2,0,3.9,29.3,3.9,65.5s-1.8,65.5-3.9,65.5c-2.2,0-3.9-29.3-3.9-65.5
		S357.4,528,359.5,528L359.5,528z"/>
	<path id="path67" class="st0" d="M425.1,508.1c0,0,2.6,13.1-0.8,27.8c0,0-3.1-13.1-9.7-22.3c0,0,8.6,46.1,7.3,66.5
		C421.9,580.1,443.1,543.4,425.1,508.1z"/>
	<path id="path69" class="st0" d="M410.8,535.7c0,0-1.9,17.2-7.2,34.8c0,0-6-29.1-13.2-40.8c0,0,10,56.8,6.8,81.6
		C397.2,611.3,421.9,580.1,410.8,535.7z"/>
	<path id="path71" class="st0" d="M386.2,554.1c0,0,2.2,16.2-3.1,33.8c0,0-13.3-56.5-20.5-68.2c0,0,14.5,88,11.3,112.8
		C373.8,632.5,398,597.8,386.2,554.1L386.2,554.1z"/>
	<path id="path73" class="st0" d="M368.1,598.5c0,0,0.8,35.9-1.3,47.9C366.8,646.4,377,633.3,368.1,598.5z"/>
	<path id="path75" class="st0" d="M392.8,591.7c0,0-8,38.3-16,50.8C376.8,642.5,399,631.3,392.8,591.7z"/>
	<path id="path77" class="st0" d="M416.8,565c0,0-3.1,28.8-12,52.1C404.8,617.1,423.6,601.4,416.8,565z"/>
	<path id="path79" class="st0" d="M421.5,590.3c0,0-3.7,21.5-6,26.7c-2.4,5.2,6.3-0.1,6.8-6.7C422.9,603.8,423,599.8,421.5,590.3z"
		/>
	<path id="path81" class="st0" d="M441.4,538.1c0,0-5.2-18.1-6-8.1c-0.8,9.9,0.8,45.3-7.6,66C417.7,620.9,447.4,589.1,441.4,538.1z"
		/>
	<path id="path83" class="st0" d="M452.1,571.1c0,0-5.1,17.7-5.9,8s0.7-44.4-7.6-64.6C428.6,490,457.8,521,452.1,571.1z"/>
	<path id="path85" class="st0" d="M396.5,615.8c-1,4.6-0.5,6.9-2.1,8.9s-3.3,10.7,0.7,8.4C405.1,627.1,398.1,609,396.5,615.8z"/>
	<path id="path87" class="st0" d="M463.9,553c0,0-5,12.9-5.3,5.6c-0.3-7.2,2.2-32.8-4.1-48.1C446.9,492,470.6,516.2,463.9,553z"/>
	<path id="path89" class="st0" d="M475.6,536.5c-4,9.5-4.9,15.2-0.4,14.4c10.8-1.8,11.4-37.4,1.3-45.6
		C465,496,479.6,527,475.6,536.5L475.6,536.5z"/>
	<path id="path91" class="st0" d="M468.8,550.4c4.7-10.4,6.2-23,2.2-33.9c-1.4-3.9-3.9-10.6-5.8-10.6c-1.8,0,0.1,5.9,1,12.8
		s1.3,26.4,0.3,30.4C465.5,553,468.8,550.4,468.8,550.4L468.8,550.4z"/>
	<path id="path93" class="st0" d="M452.4,528.1c0.9-6.5-0.2-13.7-4.2-19c-1.4-1.9-3.9-5.2-4.9-4.9c-1,0.3,1,3.2,2.6,6.9
		c1.6,3.7,4.9,14.4,5,16.7C451,530,452.4,528.1,452.4,528.1L452.4,528.1z"/>
	<path id="path95" class="st0" d="M422,515.4c0-6.5-2.7-13.5-8.7-18.3c-2.1-1.7-5.8-4.6-7.1-4.2c-1.2,0.4,1.9,3.1,4.6,6.5
		s8.8,13.6,9.3,15.9C420.6,517.6,422,515.4,422,515.4L422,515.4z"/>
	<path id="path97" class="st0" d="M410,527.4c0.8-6.5-1-13.7-6.2-19.1c-1.9-1.9-5-5.3-6.3-5c-1.2,0.3,1.4,3.2,3.6,6.9
		c2.2,3.7,6.9,14.4,7.1,16.8C408.4,529.4,410,527.4,410,527.4L410,527.4z"/>
	<path id="path99" class="st0" d="M404.3,548c1.4-7.9-0.2-16.8-6.1-23.8c-2.1-2.5-5.7-6.8-7.3-6.5c-1.5,0.3,1.5,4.1,3.9,8.7
		c2.4,4.7,7.3,18.2,7.3,21C402.2,550.3,404.3,548,404.3,548L404.3,548z"/>
	<path id="path101" class="st0" d="M383.1,558.3c1.4-12-0.2-25.6-6-36.3c-2.1-3.8-5.7-10.4-7.2-10c-1.5,0.4,1.5,6.2,3.8,13.3
		c2.4,7.1,7.2,27.7,7.3,32.1C381,561.7,383.1,558.3,383.1,558.3L383.1,558.3z"/>
	<g id="Layer1002">
		<g id="Layer1003">
			<path id="path103" class="st0" d="M250.6,453.7c0,0,2.4,16.5,18.6,10.5s47.6-46.9,69.6-33.5c0,0-23.3,4.2-40.1,23.3
				C281.3,473.8,246,480,250.6,453.7z"/>
			<path id="path105" class="st0" d="M262.9,442c0,0-11.7,2.1-16.9,9.3C235.5,465.7,236.7,431.2,262.9,442z"/>
			<path id="path107" class="st0" d="M272,473.6c12.5-3.5,28.9-14.3,42.9-24.2c11.4-8,23.7-10.6,32.4-9.3c0,0-12.4,2.9-25.1,12.3
				C309.4,461.8,294.6,470,272,473.6L272,473.6z"/>
			<path id="path109" class="st0" d="M250.9,471.3c0,0,18.8,11.7,40.1,2.5c21.2-9.3,25.5-17.3,48.8-21.6
				C317.3,464,275.4,500.4,250.9,471.3z"/>
			<path id="path111" class="st0" d="M273.3,487.7c10.3,0.3,24.3-2.1,32.9-5c8.2-2.7,28.9-13.9,43.1-27.5
				c-5.5,17.1-30.4,28.4-45.7,35.3c-13.3,6-27.8,10.6-45,4.6c0,0,26.4,1,32.2-1.8C290.7,493.3,276.8,493.9,273.3,487.7L273.3,487.7z
				"/>
			<path id="path113" class="st0" d="M243.7,456.4c0,0-2.2,23.4,24,33.9C267.7,490.3,232.6,499.1,243.7,456.4z"/>
			<path id="path115" class="st0" d="M251.1,495.1c0,0-18.3-10.5-13.9-40.3c0,0,0.5-3.8,1.8-8C220.1,462.9,234.1,490.4,251.1,495.1
				L251.1,495.1z"/>
			<path id="path117" class="st0" d="M295.6,481.6c0,0,32.7-12.8,52.4-31.9C348,449.7,343.5,468.3,295.6,481.6z"/>
		</g>
		<g id="Layer1004">
			<path id="path120" class="st0" d="M469.4,453.7c0,0-2.4,16.5-18.6,10.5s-47.6-46.9-69.6-33.5c0,0,23.3,4.2,40.1,23.3
				C438.7,473.8,474,480,469.4,453.7z"/>
			<path id="path122" class="st0" d="M457.1,442c0,0,11.7,2.1,16.9,9.3C484.5,465.7,483.3,431.2,457.1,442z"/>
			<path id="path124" class="st0" d="M448,473.6c-12.5-3.5-28.9-14.3-42.9-24.2c-11.4-8-23.7-10.6-32.4-9.3c0,0,12.4,2.9,25.1,12.3
				C410.6,461.8,425.4,470,448,473.6L448,473.6z"/>
			<path id="path126" class="st0" d="M469.1,471.3c0,0-18.8,11.7-40.1,2.5c-21.2-9.3-25.5-17.3-48.8-21.6
				C402.7,464,444.6,500.4,469.1,471.3z"/>
			<path id="path128" class="st0" d="M446.7,487.7c-10.3,0.3-24.3-2.1-32.9-5c-8.2-2.7-28.9-13.9-43.1-27.5
				c5.5,17.1,30.4,28.4,45.7,35.3c13.3,6,27.8,10.6,45,4.6c0,0-26.4,1-32.2-1.8C429.3,493.3,443.2,493.9,446.7,487.7L446.7,487.7z"
				/>
			<path id="path130" class="st0" d="M476.3,456.4c0,0,2.2,23.4-24,33.9C452.3,490.3,487.4,499.1,476.3,456.4z"/>
			<path id="path132" class="st0" d="M468.9,495.1c0,0,18.3-10.5,13.9-40.3c0,0-0.5-3.8-1.8-8C499.9,462.9,485.9,490.4,468.9,495.1
				L468.9,495.1z"/>
			<path id="path134" class="st0" d="M424.4,481.6c0,0-32.7-12.8-52.4-31.9C372,449.7,376.5,468.3,424.4,481.6z"/>
		</g>
	</g>
	<g id="Layer1005">
		<path id="path138" class="st1" d="M260.5,338.4c7.4-8.8,25.2-22.9,37-22.5c13.2,0.5,21.7,2.6,26.7,6.3l-0.3-4
			c0,0,9.3,4.5,13.5,9.3c0,0,0.1-3.8,0.9-4.5s3.8,6.6,5,11.6s5.9,15.7,6.1,18.2c0.3,2.5,0.7,16.7-0.2,24.8
			c-0.9,8.2-1.5,28.6-1.5,32.5c0,0-2.9-4.5-2.9-9.6s2.5-28,1.6-39.8s-1.9-17.1-7.1-18.8c-5.3-1.7-16.1-4.4-20-6.1
			C315.5,334.1,292.3,328.2,260.5,338.4L260.5,338.4z"/>
		<path id="path140" class="st1" d="M275.6,350c0,0,36.1-21.8,59.6,7.5C335.2,357.5,294.4,374.5,275.6,350z"/>
		<path id="path142" class="st0" d="M287,354.2c0,0,23.4-16.5,40.7,2.1C327.7,356.4,302.1,367.6,287,354.2z"/>
		<path id="path144" class="st1" d="M307.4,345.6c4.3,0,7.8,3.5,7.8,7.8l0,0c0,4.3-3.5,7.8-7.8,7.8s-7.8-3.5-7.8-7.8
			S303.1,345.6,307.4,345.6z"/>
		<path id="path146" class="st0" d="M305.4,348c1.6,0,2.9,1.3,2.9,2.9l0,0c0,1.6-1.3,2.9-2.9,2.9s-2.9-1.3-2.9-2.9
			C302.4,349.3,303.8,348,305.4,348z"/>
		<path id="path148" class="st1" d="M279.6,340.9c12.6-7.8,41.4-2.9,51,5.1c0,0,0.4,3.7-0.8,2.5c-9.4-9.4-41.2-11.6-49.1-5.4
			C280.3,343.7,278.7,341.4,279.6,340.9z"/>
		<path id="path150" class="st1" d="M284.6,361.4c0,0,5.2,5.6,17.4,6.6C302.1,368.1,289.1,370.6,284.6,361.4z"/>
		<path id="path152" class="st1" d="M340.8,355c0,0-0.7,11.9-0.7,15.2c0,0-1.1,0.9-1.2,0s0.2-13.2,0.6-14.8
			C340,353.8,340.8,355,340.8,355z"/>
		<path id="path154" class="st1" d="M348.1,338.9c0,0-2.3-7.7-3.1-9.8c0,0,0.5-0.8,0.8-0.3c0.3,0.6,2.9,8.4,3,9.5
			C348.9,339.5,348.1,338.9,348.1,338.9L348.1,338.9z"/>
		<path id="path156" class="st1" d="M351.2,337.6c0,0-1-4-1.3-5.1c0,0,0.4-0.3,0.6,0s1.3,4.5,1.3,5
			C351.8,338,351.2,337.6,351.2,337.6z"/>
		<path id="path158" class="st1" d="M457,338.4c-7.4-8.8-25.2-22.9-37-22.5c-13.2,0.5-21.7,2.6-26.7,6.3l0.3-4c0,0-9.3,4.5-13.5,9.3
			c0,0-0.1-3.8-0.9-4.5s-3.8,6.6-5,11.6s-5.9,15.7-6.1,18.2c-0.3,2.5-0.7,16.7,0.2,24.8c0.9,8.2,1.5,28.6,1.5,32.5
			c0,0,2.9-4.5,2.9-9.6s-2.5-28-1.6-39.8s1.9-17.1,7.1-18.8c5.3-1.7,16.1-4.4,20-6.1C402,334.1,425.3,328.2,457,338.4L457,338.4z"/>
		<path id="path160" class="st1" d="M441.9,350c0,0-36.1-21.8-59.6,7.5C382.3,357.5,423.1,374.5,441.9,350z"/>
		<path id="path162" class="st0" d="M430.5,354.2c0,0-23.4-16.5-40.7,2.1C389.8,356.4,415.5,367.6,430.5,354.2L430.5,354.2z"/>
		<path id="path164" class="st1" d="M410.1,345.6c-4.3,0-7.8,3.5-7.8,7.8l0,0c0,4.3,3.5,7.8,7.8,7.8s7.8-3.5,7.8-7.8
			S414.4,345.6,410.1,345.6z"/>
		<path id="path166" class="st0" d="M412.2,348c-1.6,0-2.9,1.3-2.9,2.9l0,0c0,1.6,1.3,2.9,2.9,2.9s2.9-1.3,2.9-2.9
			S413.8,348,412.2,348z"/>
		<path id="path168" class="st1" d="M437.9,340.9c-12.6-7.8-41.4-2.9-51,5.1c0,0-0.4,3.7,0.8,2.5c9.4-9.4,41.2-11.6,49.1-5.4
			C437.2,343.7,438.8,341.4,437.9,340.9L437.9,340.9z"/>
		<path id="path170" class="st1" d="M432.9,361.4c0,0-5.2,5.6-17.4,6.6C415.4,368.1,428.4,370.6,432.9,361.4z"/>
		<path id="path172" class="st1" d="M376.7,355c0,0,0.7,11.9,0.7,15.2c0,0,1.1,0.9,1.2,0s-0.2-13.2-0.6-14.8
			C377.6,353.8,376.7,355,376.7,355L376.7,355z"/>
		<path id="path174" class="st1" d="M369.4,338.9c0,0,2.3-7.7,3.1-9.8c0,0-0.5-0.8-0.8-0.3c-0.3,0.6-2.9,8.4-3,9.5
			C368.6,339.5,369.4,338.9,369.4,338.9L369.4,338.9z"/>
		<path id="path176" class="st1" d="M366.3,337.6c0,0,1-4,1.3-5.1c0,0-0.4-0.3-0.6,0s-1.3,4.5-1.3,5
			C365.8,338,366.3,337.6,366.3,337.6z"/>
		<path id="path178" class="st1" d="M337.2,427.8c-10.3-4.5-5.8-20,0.7-26.1c0,0,0.3-2.5-2-1.2C327.6,405.4,321.9,431.2,337.2,427.8
			L337.2,427.8z"/>
		<path id="path180" class="st1" d="M380.4,427.8c10.3-4.5,5.8-20-0.7-26.1c0,0-0.3-2.5,2-1.2C390,405.4,395.7,431.2,380.4,427.8
			L380.4,427.8z"/>
	</g>
</g>
</svg>
